<svg xmlns="http://www.w3.org/2000/svg" width="1280" height="480" viewBox="0 0 1280 480" role="img" aria-label="Sonora — ditado por voz para Windows">
<defs>
  <filter id="pill" x="-20%" y="-60%" width="140%" height="240%">
    <feDropShadow dx="0" dy="14" stdDeviation="14" flood-color="#000" flood-opacity=".38"/>
  </filter>
  <filter id="win" x="-10%" y="-10%" width="120%" height="130%">
    <feDropShadow dx="0" dy="18" stdDeviation="18" flood-color="#141412" flood-opacity=".45"/>
  </filter>
</defs>
<rect width="1280" height="480" rx="20" fill="#161615"/>
<rect x=".5" y=".5" width="1279" height="479" rx="19.5" fill="none" stroke="#31312f"/>
<circle cx="104" cy="139" r="16" fill="#ff6b61" fill-opacity=".16"/>
<circle cx="104" cy="139" r="8" fill="#ff6b61"/>
<text x="132" y="148" font-family="'Segoe UI Variable Text','Segoe UI',system-ui,-apple-system,BlinkMacSystemFont,'Helvetica Neue',Arial,sans-serif" font-size="15" font-weight="600" fill="#ff6b61" letter-spacing=".2">No ar</text>
<text x="86" y="258" font-family="'Segoe UI Variable Display','Segoe UI',system-ui,-apple-system,BlinkMacSystemFont,'Helvetica Neue',Arial,sans-serif" font-size="112" font-weight="600" letter-spacing="-3" fill="#f2f2ee">Sonora</text>
<text x="90" y="312" font-family="'Segoe UI Variable Text','Segoe UI',system-ui,-apple-system,BlinkMacSystemFont,'Helvetica Neue',Arial,sans-serif" font-size="25" fill="#c4c4be">Fale em qualquer aplicativo.</text>
<text x="90" y="346" font-family="'Segoe UI Variable Text','Segoe UI',system-ui,-apple-system,BlinkMacSystemFont,'Helvetica Neue',Arial,sans-serif" font-size="25" fill="#a3a39d">O texto chega pronto no campo em foco.</text>
<line x1="90" y1="384" x2="560" y2="384" stroke="#31312f"/>
<text x="90" y="412" font-family="'Cascadia Mono','Cascadia Code',Consolas,'SFMono-Regular',Menlo,monospace" font-size="13.5" fill="#a3a39d">v2.0.1   ·   Windows   ·   Tauri 2 + Rust</text>
<g filter="url(#win)"><rect x="672" y="76" width="520" height="256" rx="12" fill="#232322"/></g>
<rect x="672.5" y="76.5" width="519" height="255" rx="11.5" fill="none" stroke="#31312f"/>
<text x="696" y="108" font-family="'Segoe UI Variable Text','Segoe UI',system-ui,-apple-system,BlinkMacSystemFont,'Helvetica Neue',Arial,sans-serif" font-size="13" fill="#a3a39d">notas-da-reuniao.md</text>
<line x1="1130" y1="103" x2="1138" y2="103" stroke="#6a6a66" stroke-width="1.4" stroke-linecap="round"/>
<line x1="1148" y1="103" x2="1156" y2="103" stroke="#6a6a66" stroke-width="1.4" stroke-linecap="round"/>
<line x1="1166" y1="103" x2="1174" y2="103" stroke="#6a6a66" stroke-width="1.4" stroke-linecap="round"/>
<line x1="672" y1="128" x2="1192" y2="128" stroke="#31312f"/>
<text x="696" y="170" font-family="'Segoe UI Variable Text','Segoe UI',system-ui,-apple-system,BlinkMacSystemFont,'Helvetica Neue',Arial,sans-serif" font-size="18" fill="#a3a39d">Revisar o pipeline Preciso antes da release</text>
<text x="696" y="204" font-family="'Segoe UI Variable Text','Segoe UI',system-ui,-apple-system,BlinkMacSystemFont,'Helvetica Neue',Arial,sans-serif" font-size="18" fill="#a3a39d">e mover o fallback para o Whisper turbo.</text>
<text x="696" y="238" font-family="'Segoe UI Variable Text','Segoe UI',system-ui,-apple-system,BlinkMacSystemFont,'Helvetica Neue',Arial,sans-serif" font-size="18" fill="#f2f2ee">Depois, conferir o @src/views/HistoricoView.tsx</text>
<rect x="688" y="226" width="4" height="0" fill="none"/>
<rect x="696" y="256" width="2" height="22" rx="1" fill="#f2f2ee"/>
<path d="M697 302 l4 4 l8 -9" fill="none" stroke="#5cc283" stroke-width="2" stroke-linecap="round" stroke-linejoin="round"/>
<text x="716" y="308" font-family="'Cascadia Mono','Cascadia Code',Consolas,'SFMono-Regular',Menlo,monospace" font-size="12.5" fill="#5cc283">colado no campo em foco</text>
<g filter="url(#pill)"><rect x="811.3" y="358.44" width="241.39999999999998" height="51.12" rx="25.56" fill="#161615"/></g>
<rect x="811.8" y="358.94" width="240.39999999999998" height="50.12" rx="25.56" fill="none" stroke="#ffffff" stroke-opacity=".08"/>
<circle cx="836.8599999999999" cy="384" r="11" fill="#e5483f" fill-opacity=".18"/>
<circle cx="836.8599999999999" cy="384" r="5.5" fill="#e5483f"/>
<rect x="860.42" y="381.5" width="3" height="4.92" rx="1.5" fill="#e2e2dd"/>
<rect x="867.02" y="379.9" width="3" height="8.2" rx="1.5" fill="#e2e2dd"/>
<rect x="873.62" y="377.4" width="3" height="13.12" rx="1.5" fill="#e2e2dd"/>
<rect x="880.2199999999999" y="374.2" width="3" height="19.68" rx="1.5" fill="#e2e2dd"/>
<rect x="886.8199999999999" y="378.3" width="3" height="11.479999999999999" rx="1.5" fill="#e2e2dd"/>
<rect x="893.42" y="371.7" width="3" height="24.599999999999998" rx="1.5" fill="#e2e2dd"/>
<rect x="900.02" y="375.8" width="3" height="16.4" rx="1.5" fill="#e2e2dd"/>
<rect x="906.62" y="379.1" width="3" height="9.84" rx="1.5" fill="#e2e2dd"/>
<rect x="913.2199999999999" y="373.3" width="3" height="21.32" rx="1.5" fill="#e2e2dd"/>
<rect x="919.8199999999999" y="376.6" width="3" height="14.76" rx="1.5" fill="#e2e2dd"/>
<rect x="926.42" y="380.3" width="3" height="7.38" rx="1.5" fill="#e2e2dd"/>
<rect x="933.02" y="377.9" width="3" height="12.299999999999999" rx="1.5" fill="#e2e2dd"/>
<rect x="939.6199999999999" y="375.0" width="3" height="18.04" rx="1.5" fill="#e2e2dd"/>
<rect x="946.2199999999999" y="379.5" width="3" height="9.02" rx="1.5" fill="#e2e2dd"/>
<rect x="952.8199999999999" y="381.1" width="3" height="5.739999999999999" rx="1.5" fill="#e2e2dd"/>
<text x="1034.6999999999998" y="388.5" text-anchor="end" font-family="'Cascadia Mono','Cascadia Code',Consolas,'SFMono-Regular',Menlo,monospace" font-size="13" fill="#a3a39d">0:07</text>
<rect x="874.0" y="425.5" width="50" height="26" rx="7" fill="#454543"/><rect x="874.0" y="424" width="50" height="26" rx="7" fill="#232322" stroke="#454543"/><text x="899.0" y="441.5" text-anchor="middle" font-family="'Cascadia Mono','Cascadia Code',Consolas,'SFMono-Regular',Menlo,monospace" font-size="12" fill="#f2f2ee">Ctrl</text>
<text x="934.0" y="442" font-family="'Cascadia Mono','Cascadia Code',Consolas,'SFMono-Regular',Menlo,monospace" font-size="13" fill="#6a6a66">+</text>
<rect x="948.0" y="425.5" width="26" height="26" rx="7" fill="#454543"/><rect x="948.0" y="424" width="26" height="26" rx="7" fill="#232322" stroke="#454543"/><text x="961.0" y="441.5" text-anchor="middle" font-family="'Cascadia Mono','Cascadia Code',Consolas,'SFMono-Regular',Menlo,monospace" font-size="12" fill="#f2f2ee">B</text>
</svg>